<svg width="20" height="19" viewBox="0 0 20 19" fill="none" xmlns="http://www.w3.org/2000/svg">
<path d="M16.1018 8.36124L14.2821 10.1149C14.0323 10.3553 13.8626 10.8361 13.9144 11.1802L14.1973 13.2356C14.3811 14.5508 13.5656 15.1212 12.3871 14.5084L10.3883 13.4618C10.0536 13.2874 9.50681 13.2968 9.18154 13.4901L7.43263 14.5131C6.05142 15.3192 5.22646 14.7111 5.59415 13.1554L6.10798 10.9822C6.20227 10.5863 6.02785 10.0441 5.73086 9.77545L4.07623 8.2811C2.89301 7.21101 3.22299 6.23991 4.81634 6.11735L6.83395 5.9665C7.21107 5.93822 7.66833 5.64123 7.84275 5.30653L8.88927 3.29835C9.50681 2.12455 10.5015 2.12927 11.1002 3.31249L12.0335 5.1604C12.1938 5.47153 12.5992 5.77322 12.9434 5.82508L15.4418 6.23049C16.79 6.45676 17.087 7.41371 16.1018 8.36124Z" fill="#FFD600"/>
</svg>
